# xmcd
#
# Track frame offsets:
#	150
#	10503
#	20932
#	32478
#	43497
#	60319
#	72342
#	82980
#	94376
#	105562
#	118676
#	132052
#
# Disc length: 1900 seconds
#
# Revision: 1
# Processed by: cddbd v1.5.2PL0 Copyright (c) Steve Scherf et al.
# Submitted via: audiograbber 1.83.01
#
DISCID=99076a0c
DTITLE=Dickens, Little Jimmy - Best of the best
DYEAR=1900
DGENRE=Country
TTITLE0=May the bird of paradise fly up your nose
TTITLE1=Hillbilly fever
TTITLE2=Take an old cold tater (and wait)
TTITLE3=I'm little but I'm loud
TTITLE4=We could
TTITLE5=Life turned her that way
TTITLE6=A-sleeping at the foot of the bed
TTITLE7=Country boy
TTITLE8=Out behind the barn
TTITLE9=Another behind the barn
TTITLE10=My heart's bouquet
TTITLE11=This world is not my home
EXTD=
EXTT0=
EXTT1=
EXTT2=
EXTT3=
EXTT4=
EXTT5=
EXTT6=
EXTT7=
EXTT8=
EXTT9=
EXTT10=
EXTT11=
PLAYORDER=
